<svg xmlns="http://www.w3.org/2000/svg" fill="currentColor" viewBox="0 0 24 24">
  <path d="M23.5 20H.5a.5.5 0 0 1-.5-.5v-5a.5.5 0 0 1 1 0V19h21.293l-1-1H3.5a.5.5 0 0 1 0-1h18c.133 0 .26.053.354.146l2 2A.499.499 0 0 1 23.5 20z M3.5 18C1.57 18 0 16.43 0 14.5v-2.37c0-.584.326-1.103.851-1.353C4.192 9.188 15.376 4 19 4c4.64 0 5 3.062 5 4v1.661c0 .729-.521 1.35-1.239 1.477L6.947 13.929c.035.193.053.382.053.571C7 16.43 5.43 18 3.5 18zM19 5C16.287 5 8.067 8.451 1.28 11.681a.49.49 0 0 0-.28.449v2.37C1 15.878 2.121 17 3.5 17S6 15.878 6 14.5c0-.256-.048-.52-.147-.808a.495.495 0 0 1 .043-.418.505.505 0 0 1 .347-.238l.175-.029 16.17-2.853A.5.5 0 0 0 23 9.661V8c0-1.121-.52-3-4-3z M20.5 15h-14a.5.5 0 0 1 0-1H20v-3a.5.5 0 0 1 1 0v3.5a.5.5 0 0 1-.5.5zM3.5 16c-.827 0-1.5-.673-1.5-1.5S2.673 13 3.5 13s1.5.673 1.5 1.5S4.327 16 3.5 16zm0-2a.5.5 0 1 0 .002 1.002A.5.5 0 0 0 3.5 14z"/>
</svg>
